<!-- Generator: Adobe Illustrator 22.1.0, SVG Export Plug-In  -->
<svg version="1.1"
	 xmlns="http://www.w3.org/2000/svg" xmlns:xlink="http://www.w3.org/1999/xlink" xmlns:a="http://ns.adobe.com/AdobeSVGViewerExtensions/3.0/"
	 x="0px" y="0px" width="96.1px" height="135.2px" viewBox="0 0 96.1 135.2" style="enable-background:new 0 0 96.1 135.2;"
	 xml:space="preserve">
<style type="text/css">
	.st0{fill:#FFFFFF;}
</style>
<defs>
</defs>
<g>
	<path class="st0" d="M13.1,115.6c-0.6-0.8-1.6-0.9-2.4-0.4c-0.8,0.5-0.9,1.6-0.4,2.4c3.1,4.4,6.7,8.2,10.6,11.3
		c0.3,0.3,0.7,0.4,1.1,0.4c0.5,0,1-0.2,1.3-0.6c0.6-0.7,0.5-1.8-0.3-2.4C19.4,123.3,16.1,119.7,13.1,115.6z"/>
	<path class="st0" d="M3.6,96.3c-0.2-0.9-1.2-1.5-2.1-1.2c-0.9,0.2-1.5,1.2-1.2,2.1c0.1,0.3,1.8,6.7,6.3,14.5
		c0.3,0.6,0.9,0.9,1.5,0.9c0.3,0,0.6-0.1,0.8-0.2c0.8-0.5,1.1-1.5,0.6-2.3C5.3,102.5,3.6,96.3,3.6,96.3z"/>
	<path class="st0" d="M4.8,45.8C9.6,21.5,26,8.5,50,10.1c21.4,1.4,37.6,16,42.1,38c0.4,3.3,0.6,6.7,0.6,10.1c0,0.9,0.8,1.7,1.7,1.7
		c0.9,0,1.7-0.8,1.7-1.7c0-3.5-0.2-7.1-0.7-10.7C90.6,23.9,73.2,8.2,50.2,6.7C24.7,5,6.5,19.4,1.4,45.1c-1.1,5.8-9.9,57.6,36.2,89.1
		c0.3,0.2,0.6,0.3,1,0.3c0.5,0,1.1-0.3,1.4-0.7c0.5-0.8,0.3-1.8-0.4-2.4C-4.7,101.1,3.6,51.4,4.8,45.8z"/>
	<path class="st0" d="M18,103.1c0.3,0,0.6-0.1,0.8-0.2c0.8-0.5,1.1-1.5,0.7-2.3c-4-7.1-6.8-15.1-8.4-23.5c-0.2-0.9-1.1-1.5-2-1.4
		c-0.9,0.2-1.5,1.1-1.4,2c1.6,8.8,4.6,17.1,8.7,24.6C16.8,102.8,17.4,103.1,18,103.1z"/>
	<path class="st0" d="M23,106.2c-0.5-0.8-1.6-1-2.4-0.4c-0.8,0.5-1,1.6-0.4,2.4c4.9,7.1,11,13.3,18.2,18.7c0.3,0.2,0.7,0.3,1,0.3
		c0.5,0,1-0.2,1.4-0.7c0.6-0.8,0.4-1.8-0.4-2.4C33.5,118.9,27.6,112.9,23,106.2z"/>
	<path class="st0" d="M13.3,39.1c3.3-8.3,8.5-14.3,15.6-18c0.8-0.4,1.2-1.5,0.7-2.3c-0.4-0.8-1.5-1.2-2.3-0.7
		c-7.8,4-13.7,10.9-17.2,19.8c-0.3,0.9,0.1,1.9,1,2.2c0.2,0.1,0.4,0.1,0.6,0.1C12.4,40.2,13,39.8,13.3,39.1z"/>
	<path class="st0" d="M85.8,53c0,0.1,0,0.2,0,0.3c0.3,7.1,2.8,12.6,7.5,16.3c0.3,0.3,0.7,0.4,1.1,0.4c0.5,0,1-0.2,1.3-0.6
		c0.6-0.7,0.5-1.8-0.3-2.4c-3.9-3.1-6-7.8-6.2-13.8c0-0.3,0-0.5,0-0.6c-0.4-2.8-1-5.5-1.8-8.2c-0.3-0.9-1.2-1.4-2.1-1.1
		c-0.9,0.3-1.4,1.2-1.1,2.1C84.9,47.8,85.5,50.4,85.8,53z"/>
	<path class="st0" d="M53.4,132c-2.6-1.3-5.1-2.7-7.4-4.2c-0.8-0.5-1.9-0.3-2.4,0.5c-0.5,0.8-0.3,1.9,0.5,2.4c2.4,1.5,5,3,7.7,4.3
		c0.2,0.1,0.5,0.2,0.8,0.2c0.6,0,1.2-0.3,1.5-0.9C54.5,133.4,54.2,132.4,53.4,132z"/>
	<path class="st0" d="M49.6,13.9C44,13.5,38.8,14,34,15.4c-0.9,0.3-1.4,1.2-1.2,2.1c0.3,0.9,1.2,1.4,2.1,1.2
		c4.4-1.3,9.3-1.7,14.4-1.4c3.4,0.2,6.7,0.9,9.8,1.9c0.2,0.1,0.4,0.1,0.5,0.1c0.7,0,1.4-0.5,1.6-1.2c0.3-0.9-0.2-1.9-1.1-2.2
		C56.9,14.8,53.3,14.1,49.6,13.9z"/>
	<path class="st0" d="M11.3,45.4c0.2-0.9-0.3-1.8-1.3-2.1c-0.9-0.2-1.8,0.3-2.1,1.3c-0.2,0.8-0.4,1.7-0.6,2.5
		c-0.3,1.4-1.2,6.6-1.2,14.1c0,3.2,0.2,6.3,0.5,9.4c0.1,0.9,0.8,1.5,1.7,1.5c0.1,0,0.1,0,0.2,0c0.9-0.1,1.6-0.9,1.5-1.9
		c-0.3-3-0.5-6.1-0.5-9.1c0-7.2,0.9-12.1,1.1-13.5C11,47,11.1,46.2,11.3,45.4z"/>
	<path class="st0" d="M84.9,37.8c-4-8.3-10.2-14.9-18.1-19.1c-0.8-0.4-1.9-0.1-2.3,0.7c-0.4,0.8-0.1,1.9,0.7,2.3
		c7.2,3.8,12.9,9.9,16.6,17.5c0.3,0.6,0.9,1,1.5,1c0.2,0,0.5-0.1,0.7-0.2C85,39.6,85.3,38.6,84.9,37.8z"/>
	<path class="st0" d="M95,73.7C84.8,69.8,82.5,61,82.4,54.3c0-0.3,0-0.5,0-0.6c-2.2-18.3-15.5-31.4-33.3-32.6
		c-18.7-1.2-32,9.3-35.6,28.1c-0.4,2.3-10.1,56.8,44.3,81.4c1.5,0.7,2.9,1.4,4.3,2.1c0.2,0.1,0.5,0.2,0.8,0.2c0.6,0,1.2-0.4,1.5-1
		c0.4-0.8,0.1-1.9-0.8-2.3c-1.5-0.7-2.9-1.4-4.4-2.1C7.2,104,16.4,52,16.9,49.8c3.2-17,15.2-26.4,32-25.3c16,1.1,28.1,13,30.1,29.6
		l0,0.3c0.2,11,5.5,18.9,14.8,22.5c0.9,0.3,1.9-0.1,2.2-1C96.3,75,95.9,74,95,73.7z"/>
	<path class="st0" d="M75.5,54.9c-0.8-7.9-4.4-15-10.1-19.8c-0.7-0.6-1.8-0.5-2.4,0.2c-0.6,0.7-0.5,1.8,0.2,2.4
		c5,4.3,8.2,10.5,8.9,17.6l0,0.5c0,0.5,0,1.9,0.2,3.6c0.1,0.9,0.8,1.5,1.7,1.5c0.1,0,0.1,0,0.2,0c0.9-0.1,1.6-0.9,1.5-1.9
		c-0.2-1.6-0.2-2.8-0.2-3.3l0-0.5C75.5,55.1,75.5,55,75.5,54.9z"/>
	<path class="st0" d="M95,80.2c-1.8-0.7-3.8-1.6-6.4-2.8C83,75,79.2,70.9,77.1,65.3c-0.3-0.9-1.3-1.3-2.2-1c-0.9,0.3-1.3,1.3-1,2.2
		c2.4,6.5,6.9,11.2,13.3,14.1c2.7,1.2,4.7,2.1,6.5,2.8c0.2,0.1,0.4,0.1,0.6,0.1c0.7,0,1.3-0.4,1.6-1.1C96.3,81.5,95.9,80.5,95,80.2z
		"/>
	<path class="st0" d="M71,126c-2.1-0.9-4.6-2.2-7.2-3.5c-1.6-0.8-3.3-1.7-4.8-2.4c-1.2-0.6-2.4-1.2-3.5-1.8
		c-0.8-0.5-1.9-0.2-2.3,0.7c-0.5,0.8-0.2,1.9,0.7,2.3c1.2,0.7,2.4,1.3,3.7,1.9c1.5,0.8,3.2,1.6,4.8,2.4c2.7,1.3,5.2,2.6,7.3,3.6
		c0.2,0.1,0.5,0.1,0.7,0.1c0.7,0,1.3-0.4,1.6-1C72.2,127.4,71.8,126.3,71,126z"/>
	<path class="st0" d="M33.8,34.6c0.3,0,0.5-0.1,0.8-0.2c3.9-2.1,8.5-3,13.7-2.6c3.4,0.2,6.6,1.1,9.6,2.5c0.9,0.4,1.9,0,2.3-0.8
		c0.4-0.9,0-1.9-0.8-2.3c-3.3-1.6-7-2.5-10.8-2.8c-5.8-0.4-11,0.7-15.5,3c-0.8,0.4-1.1,1.5-0.7,2.3C32.6,34.2,33.2,34.6,33.8,34.6z"
		/>
	<path class="st0" d="M27.6,93.8c0.3,0,0.5-0.1,0.8-0.2c0.8-0.4,1.2-1.4,0.8-2.3c-3.6-7.3-5.8-15.3-6.6-24c-0.1-0.9-0.9-1.6-1.9-1.6
		c-0.9,0.1-1.6,0.9-1.6,1.9c0.8,9.1,3.1,17.6,6.9,25.2C26.3,93.4,26.9,93.8,27.6,93.8z"/>
	<path class="st0" d="M20.5,62.3c0.9,0,1.7-0.8,1.7-1.7c0-5.2,0.6-8.4,0.7-8.8c1-5.6,3.3-10.3,6.7-13.7c0.7-0.7,0.7-1.8,0-2.4
		c-0.7-0.7-1.8-0.7-2.4,0c-3.9,4-6.4,9.2-7.6,15.5c-0.1,0.4-0.7,3.9-0.7,9.4C18.8,61.6,19.6,62.3,20.5,62.3
		C20.5,62.3,20.5,62.3,20.5,62.3z"/>
	<path class="st0" d="M47.8,117.6c0.3,0.2,0.6,0.3,1,0.3c0.5,0,1.1-0.3,1.4-0.7c0.5-0.8,0.3-1.8-0.5-2.4c-7.1-4.8-13-10.8-17.4-17.6
		c-0.5-0.8-1.6-1-2.4-0.5c-0.8,0.5-1,1.6-0.5,2.4C34.2,106.2,40.3,112.5,47.8,117.6z"/>
	<path class="st0" d="M94.5,87.2c-4.1-1.4-8-3.3-13.3-6.4C69.4,74,68.5,61.6,68.6,56.6c0-0.3,0-0.4,0-0.5
		C67.7,44.7,59.2,36.3,48,35.5c-11.6-0.8-20.4,6.2-22.4,17.8c-0.1,0.4-6.7,41.9,31.4,62.4c1.7,0.9,3.4,1.9,5.1,2.8
		c4.3,2.4,8.8,5,13.4,6.8c0.2,0.1,0.4,0.1,0.6,0.1c0.7,0,1.3-0.4,1.6-1.1c0.4-0.9-0.1-1.9-0.9-2.2c-4.4-1.8-8.8-4.2-13-6.6
		c-1.7-1-3.4-1.9-5.2-2.9C22.6,93.3,28.9,54.2,29,53.8c1.7-9.9,8.9-15.6,18.8-14.9c9.5,0.6,16.7,7.8,17.4,17.3l0,0.2
		C65,62.1,66.1,76,79.4,83.8c5.5,3.2,9.7,5.2,14,6.6c0.9,0.3,1.9-0.2,2.2-1.1C95.8,88.4,95.4,87.5,94.5,87.2z"/>
	<path class="st0" d="M31.4,58.5c0,0.6,0,1.2,0,1.9c0,5.8,0.8,14.7,4.7,23.9c0.3,0.7,0.9,1,1.6,1c0.2,0,0.4,0,0.7-0.1
		c0.9-0.4,1.3-1.4,0.9-2.2c-3.9-9.2-4.4-18.1-4.4-22.6c0-0.6,0-1.2,0-1.7c0-0.9-0.7-1.7-1.7-1.8C32.2,56.8,31.4,57.6,31.4,58.5z"/>
	<path class="st0" d="M81.6,117.3c-5.7-2.4-10.8-4.9-16.1-7.8c-0.8-0.5-1.9-0.2-2.3,0.7c-0.5,0.8-0.2,1.9,0.7,2.3
		c5.4,3,10.6,5.5,16.4,8c0.2,0.1,0.4,0.1,0.7,0.1c0.7,0,1.3-0.4,1.6-1C82.9,118.6,82.5,117.6,81.6,117.3z"/>
	<path class="st0" d="M61.7,57.3c0-1.3-0.2-2.6-0.6-3.8c-0.3-0.9-1.2-1.4-2.1-1.2c-0.9,0.3-1.4,1.2-1.2,2.1c0.3,0.9,0.4,1.9,0.5,3
		c0,0.3,0,0.8,0,1.5c0,4.3,0.8,12.7,6.1,20.5c0.3,0.5,0.9,0.7,1.4,0.7c0.3,0,0.7-0.1,1-0.3c0.8-0.5,1-1.6,0.4-2.4
		c-4.8-7-5.5-14.6-5.5-18.5c0-0.6,0-1.1,0-1.3L61.7,57.3z"/>
	<path class="st0" d="M93.2,93.7c-7.5-1.9-13.3-4.8-19.5-9.5c-0.8-0.6-1.5-1.2-2.3-1.9c-0.7-0.6-1.8-0.6-2.4,0.1
		c-0.6,0.7-0.6,1.8,0.1,2.4c0.8,0.7,1.6,1.4,2.5,2.1c6.5,4.9,12.9,8,20.7,10.1c0.1,0,0.3,0.1,0.4,0.1c0.8,0,1.5-0.5,1.7-1.3
		C94.7,94.9,94.1,93.9,93.2,93.7z"/>
	<path class="st0" d="M56.6,108.2l1.3,0.8c0.3,0.2,0.6,0.2,0.9,0.2c0.6,0,1.1-0.3,1.5-0.8c0.5-0.8,0.2-1.9-0.6-2.3l-1.3-0.8
		c-6.8-4.2-12.2-9.7-16.2-16.4c-0.5-0.8-1.5-1.1-2.3-0.6c-0.8,0.5-1.1,1.5-0.6,2.3C43.5,97.8,49.3,103.7,56.6,108.2z"/>
	<path class="st0" d="M34.4,53.6c0.7,0,1.3-0.4,1.6-1c1.9-4.3,6.2-6.8,11.3-6.4c3,0.2,5.6,1.3,7.6,3.3c0.7,0.7,1.8,0.6,2.4,0
		c0.7-0.7,0.6-1.8,0-2.4c-2.6-2.5-6-4-9.8-4.2c-6.6-0.4-12.1,2.8-14.6,8.5c-0.4,0.9,0,1.9,0.9,2.3C33.9,53.5,34.1,53.6,34.4,53.6z"
		/>
	<path class="st0" d="M91.3,100c-11.2-2.7-19.4-6.7-25.1-12.3C53.9,75.4,54.8,59.3,54.8,58.6c0.2-2.1-0.5-4.1-1.9-5.7
		c-1.5-1.7-3.7-2.8-6.1-3c-4.7-0.3-8.8,3.1-9.2,7.5c-0.1,1.1-1.8,28,18.4,43.2c9.5,7.1,18.6,11.3,27.5,15.3l0.7-1.6l0.6-1.6
		c-8.7-3.9-17.6-8-26.8-14.9C39.3,83.8,41,58.8,41.1,57.7c0.2-2.6,2.7-4.6,5.6-4.4c1.4,0.1,2.8,0.7,3.7,1.8c0.8,0.9,1.2,2.1,1.1,3.3
		c0,0.7-1,18.3,12.4,31.7c6.1,6.1,14.8,10.4,26.7,13.2c0.9,0.2,1.8-0.4,2.1-1.3C92.8,101.1,92.2,100.2,91.3,100z"/>
	<path class="st0" d="M58.3,4.7c12.2,2.7,20.1,9.2,20.5,9.5c0.3,0.3,0.7,0.4,1.1,0.4c0.5,0,1-0.2,1.3-0.6c0.6-0.7,0.5-1.8-0.2-2.4
		C80.6,11.2,72,4.3,59,1.4c-0.9-0.2-1.8,0.4-2,1.3C56.8,3.6,57.4,4.5,58.3,4.7z"/>
	<path class="st0" d="M26.8,7.4c0.3,0,0.5-0.1,0.8-0.2c0.1,0,7.5-3.8,19-3.8c1.7,0,3.4,0.1,5.1,0.2c0.9,0.1,1.8-0.6,1.9-1.5
		c0.1-0.9-0.6-1.8-1.5-1.9C50.3,0.1,48.4,0,46.6,0C34.3,0,26.4,4,26,4.2c-0.8,0.4-1.2,1.5-0.7,2.3C25.6,7.1,26.2,7.4,26.8,7.4z"/>
	<path class="st0" d="M46.4,56.9c-0.9-0.1-1.8,0.6-1.9,1.5c0,0-0.1,1-0.1,2.5c0,4.5,0.8,13.6,6.5,23.1c0.3,0.5,0.9,0.8,1.5,0.8
		c0.3,0,0.6-0.1,0.9-0.2c0.8-0.5,1.1-1.5,0.6-2.3c-5.3-8.8-6-17.1-6-21.3c0-1.3,0.1-2.1,0.1-2.1C48.1,57.9,47.4,57.1,46.4,56.9z"/>
	<path class="st0" d="M57.7,87.7c-0.6-0.7-1.7-0.8-2.4-0.2c-0.7,0.6-0.8,1.7-0.2,2.4c5.2,6.4,12.3,11.6,21,15.6
		c0.2,0.1,0.5,0.2,0.7,0.2c0.6,0,1.3-0.4,1.6-1c0.4-0.9,0-1.9-0.8-2.3C69.3,98.6,62.6,93.6,57.7,87.7z"/>
	<path class="st0" d="M88.2,106.3c-1.5-0.5-3.1-1-4.5-1.5c-0.9-0.3-1.9,0.1-2.2,1c-0.3,0.9,0.1,1.9,1,2.2c1.5,0.5,3.1,1.1,4.7,1.5
		c0.2,0,0.3,0.1,0.5,0.1c0.7,0,1.4-0.5,1.6-1.2C89.6,107.5,89.1,106.6,88.2,106.3z"/>
</g>
</svg>

