<?xml version="1.0" encoding="utf-8"?>
<!-- Generator: Adobe Illustrator 21.0.0, SVG Export Plug-In . SVG Version: 6.00 Build 0)  -->
<svg version="1.1" id="Layer_1" xmlns="http://www.w3.org/2000/svg" xmlns:xlink="http://www.w3.org/1999/xlink" x="0px" y="0px"
	 viewBox="0 0 1792 1792" style="enable-background:new 0 0 1792 1792;" xml:space="preserve">
<path d="M556.3,896c-100,3.1-181.7,42.6-245.3,118.5h-124c-50.6,0-93.2-12.5-127.7-37.5S7.5,915.4,7.5,867.3
	c0-217.8,38.3-326.7,114.8-326.7c3.7,0,17.1,6.5,40.3,19.4c23.1,13,53.2,26.1,90.2,39.3c37,13.3,73.7,19.9,110.1,19.9
	c41.3,0,82.4-7.1,123.1-21.3c-3.1,22.8-4.6,43.2-4.6,61.1C481.4,744.8,506.4,823.8,556.3,896z M1547.6,1485.6
	c0,74-22.5,132.5-67.6,175.4c-45,42.9-104.9,64.3-179.6,64.3H491.5c-74.7,0-134.5-21.4-179.6-64.3c-45-42.9-67.6-101.3-67.6-175.4
	c0-32.7,1.1-64.6,3.2-95.8c2.2-31.2,6.5-64.8,13-100.9c6.5-36.1,14.7-69.6,24.5-100.4c9.9-30.9,23.1-60.9,39.8-90.2
	c16.7-29.3,35.8-54.3,57.4-75c21.6-20.7,48-37.2,79.1-49.5s65.6-18.5,103.2-18.5c6.2,0,19.4,6.6,39.8,19.9
	c20.4,13.3,42.9,28.1,67.6,44.4c24.7,16.4,57.7,31.2,99,44.4c41.3,13.3,83,19.9,124.9,19.9s83.6-6.6,124.9-19.9
	c41.3-13.3,74.3-28.1,99-44.4c24.7-16.4,47.2-31.2,67.6-44.4c20.4-13.3,33.6-19.9,39.8-19.9c37.6,0,72,6.2,103.2,18.5
	s57.5,28.8,79.1,49.5c21.6,20.7,40.7,45.7,57.4,75s29.9,59.4,39.8,90.2c9.9,30.9,18,64.3,24.5,100.4s10.8,69.7,13,100.9
	C1546.5,1420.9,1547.6,1452.9,1547.6,1485.6z M599.8,303.7c0,65.4-23.1,121.2-69.4,167.5s-102.1,69.4-167.5,69.4
	s-121.2-23.1-167.5-69.4S126,369.1,126,303.7s23.1-121.2,69.4-167.5s102.1-69.4,167.5-69.4s121.2,23.1,167.5,69.4
	S599.8,238.3,599.8,303.7z M1251.4,659.1c0,98.1-34.7,181.9-104.1,251.3c-69.4,69.4-153.2,104.1-251.3,104.1
	s-181.9-34.7-251.3-104.1S540.6,757.2,540.6,659.1s34.7-181.9,104.1-251.3S797.9,303.7,896,303.7s181.9,34.7,251.3,104.1
	C1216.7,477.2,1251.4,561,1251.4,659.1z M1784.5,867.3c0,48.1-17.3,84.7-51.8,109.7c-34.6,25-77.1,37.5-127.7,37.5h-124
	c-63.6-75.9-145.3-115.4-245.3-118.5c50-72.2,75-151.2,75-236.9c0-17.9-1.5-38.3-4.6-61.1c40.7,14.2,81.8,21.3,123.1,21.3
	c36.4,0,73.1-6.6,110.1-19.9c37-13.3,67.1-26.4,90.2-39.3c23.1-13,36.6-19.4,40.3-19.4C1746.2,540.6,1784.5,649.5,1784.5,867.3z
	 M1666,303.7c0,65.4-23.1,121.2-69.4,167.5s-102.1,69.4-167.5,69.4s-121.2-23.1-167.5-69.4s-69.4-102.1-69.4-167.5
	s23.1-121.2,69.4-167.5s102.1-69.4,167.5-69.4s121.2,23.1,167.5,69.4S1666,238.3,1666,303.7z"/>
</svg>
