<!-- Generator: Adobe Illustrator 23.0.0, SVG Export Plug-In  -->
<svg version="1.1" xmlns="http://www.w3.org/2000/svg" xmlns:xlink="http://www.w3.org/1999/xlink" x="0px" y="0px" width="62px"
	 height="90px" viewBox="0 0 62 90" style="enable-background:new 0 0 62 90;" xml:space="preserve">
<defs>
</defs>
<path d="M14.5,15.5h39v4h-39V15.5z"/>
<path d="M8.5,24.5h45v4h-45V24.5z"/>
<path d="M8.5,33.5h45v4h-45V33.5z"/>
<path d="M8.5,42.5h45v4h-45V42.5z"/>
<path d="M8.5,51.5h29v4h-29V51.5z"/>
<path d="M10,0C4.48,0,0,4.48,0,10v70c0,5.52,4.48,10,10,10h42c5.52,0,10-4.48,10-10V10c0-5.52-4.48-10-10-10H10z M10,3h42
	c3.87,0,7,3.13,7,7v70c0,3.87-3.13,7-7,7H10c-3.87,0-7-3.13-7-7V10C3,6.13,6.13,3,10,3z"/>
<path d="M37.95,62.25l-3.25,3.25l6.15,6.15l-6.15,6.15l3.25,3.25l6.15-6.15l6.15,6.15l3.25-3.25l-6.15-6.15l6.15-6.15l-3.25-3.25
	L44.1,68.4L37.95,62.25z"/>
</svg>
