<?xml version="1.0" encoding="utf-8"?>
<!-- Generator: Adobe Illustrator 21.0.2, SVG Export Plug-In . SVG Version: 6.00 Build 0)  -->
<svg version="1.1" id="Layer_1" xmlns="http://www.w3.org/2000/svg" xmlns:xlink="http://www.w3.org/1999/xlink" x="0px" y="0px"
	 viewBox="0 0 61.3 88.9" style="enable-background:new 0 0 61.3 88.9;" xml:space="preserve">
<style type="text/css">
	.st0{fill:#78BF12;}
	.st1{fill:#D1D1D1;}
</style>
<title>FingerPrint</title>
<g id="Layer_2">
	<path class="st0" d="M25.6,62.9c4.6-6.9,6.3-14.3,4.9-21.6c-0.1-0.5-0.6-0.9-1.1-0.8c-0.5,0.1-0.9,0.6-0.8,1.2
		c2.9,14.8-8.3,28.1-20.9,33.7c-0.5,0.3-0.7,0.9-0.4,1.4c0.2,0.3,0.5,0.5,0.8,0.5h0.1c0.1,0,0.2,0,0.3-0.1
		C15.4,74.1,21.3,69.1,25.6,62.9z"/>
	<path class="st0" d="M32.9,56.2c0-0.6-0.4-1-1-1c-0.4,0-0.8,0.2-0.9,0.6C28,68,16.5,75.2,10,78.4c-0.5,0.3-0.6,0.9-0.4,1.4
		c0.2,0.3,0.5,0.5,0.8,0.5h0.1c0.1,0,0.2,0,0.4-0.1C17.7,76.8,29.7,69.3,32.9,56.2z"/>
	<path class="st0" d="M32,53.1c0.2,0.2,0.4,0.3,0.6,0.4h0.2c0.5,0,0.8-0.4,0.9-0.8c0.4-2.6,0.5-5.2,0.1-7.8c0-0.6-0.4-1-1-1
		c-0.6,0-1,0.4-1,1c0,0.1,0,0.3,0.1,0.4c0.4,2.4,0.3,4.8-0.1,7.2C31.8,52.6,31.8,52.9,32,53.1z"/>
	<path class="st0" d="M31.5,68.7c0.3-0.4,0.2-1-0.3-1.4c-0.4-0.3-1-0.2-1.4,0.3c-3.7,5.4-9.4,9.9-16.7,13.5
		c-0.5,0.2-0.7,0.8-0.5,1.3c0.2,0.3,0.5,0.5,0.9,0.6h0.1c0.1,0,0.2,0,0.4-0.1C21.7,79.2,27.5,74.4,31.5,68.7z"/>
	<path class="st0" d="M21.2,55.3c1.4-2.6,2.4-5.4,2.9-8.3c0.1-0.7,0.2-1.5,0.3-2.2c0.2-1.9,0.4-3.7,1.5-5c0.9-1,2.3-1.6,3.7-1.6
		c0.8,0,1.7,0.2,2.4,0.6c2.5,1.5,2.7,4.8,2.9,7.4c0.6,7.9-0.4,13.7-3.2,18.3c-0.3,0.5-0.2,1.1,0.3,1.4c0,0,0,0,0,0
		c0.5,0.3,1.1,0.1,1.3-0.3c3-5,4.1-11.2,3.5-19.5c-0.2-3-0.5-7-3.9-9c-1-0.6-2.2-0.9-3.4-0.9c-2,0-3.8,0.8-5.2,2.2
		c-1.6,1.8-1.8,4-2,6.1c-0.1,0.7-0.1,1.4-0.3,2c-0.5,2.7-1.4,5.3-2.7,7.8c-2.6,4.9-6.4,9.1-11.1,12.2c-1.4,0.9-2.8,1.8-4.3,2.5
		c-0.5,0.3-0.6,0.9-0.4,1.4c0.2,0.3,0.5,0.5,0.8,0.5h0.1c0.1,0,0.2,0,0.4-0.1c1.6-0.8,3.1-1.7,4.6-2.6
		C14.4,64.9,18.4,60.5,21.2,55.3z"/>
	<path class="st1" d="M15.9,55.7c-0.4-0.3-1-0.2-1.4,0.2c-2.9,3.8-6.4,6.9-10.5,9.3c-0.5,0.3-0.6,0.9-0.3,1.3
		C3.8,66.9,4.2,67,4.5,67h0.1C4.7,67,4.9,67,5,66.9c4.3-2.5,8.1-5.8,11.1-9.8C16.4,56.7,16.3,56.1,15.9,55.7z"/>
	<path class="st1" d="M27.5,78.7c0-0.3,0-0.5-0.2-0.7c-0.3-0.4-1-0.5-1.4-0.2c-2.8,2.2-5.9,4.2-9.2,5.8c-0.5,0.3-0.6,0.9-0.4,1.4
		c0.2,0.3,0.5,0.5,0.8,0.5h0.1c0.1,0,0.2,0,0.4-0.1c3.4-1.6,6.6-3.7,9.6-6C27.3,79.2,27.4,79,27.5,78.7z"/>
	<path class="st0" d="M28.7,76.7c0.2,0.2,0.4,0.3,0.7,0.3h0.1c0.2,0,0.4-0.1,0.6-0.3c7.6-7.2,11.2-17.9,9.9-29.2
		c-0.1-0.5-0.5-0.9-1-0.9h-0.1c-0.5,0.1-0.9,0.6-0.9,1.1c1.3,10.7-2.1,20.7-9.3,27.5C28.3,75.7,28.3,76.3,28.7,76.7z"/>
	<path class="st0" d="M27.5,49c0-0.6-0.5-1-1-1c-0.4,0-0.8,0.2-0.9,0.6c-1.9,9.5-9.1,18.2-19.8,23.8c-0.5,0.3-0.6,0.9-0.3,1.4
		c0.2,0.3,0.5,0.5,0.8,0.5h0.1c0.1,0,0.3,0,0.4-0.1C17.9,68.3,25.5,59.1,27.5,49z"/>
	<path class="st1" d="M7.6,60.7c0-0.3,0-0.5-0.2-0.7c-0.3-0.4-0.9-0.5-1.4-0.2c-1.3,1-2.8,1.9-4.2,2.7c-0.5,0.3-0.6,0.9-0.3,1.4
		C1.7,64,2,64.2,2.3,64.2h0.1c0.1,0,0.3,0,0.4-0.1c1.6-0.8,3.1-1.8,4.5-2.8C7.5,61.1,7.6,60.9,7.6,60.7z"/>
	<path class="st0" d="M24.7,35.4c1.4-1,3.1-1.5,4.8-1.4c1.1,0,2.2,0.2,3.2,0.5c0.5,0.2,1.1-0.1,1.2-0.6c0.2-0.5-0.1-1.1-0.6-1.2
		c-1.2-0.4-2.6-0.7-3.9-0.7c-2.1,0-4.2,0.6-5.9,1.8c-2.6,1.9-3.8,4.9-4.8,7.5c-0.3,0.7-0.5,1.4-0.7,2.1c-0.7,2.4-1.7,4.7-2.9,6.9
		c-1.7,2.6-3.8,5-6.2,7.1c-0.4,0.4-0.4,1,0,1.4c0.2,0.2,0.4,0.3,0.7,0.3h0.1c0.2,0,0.4-0.1,0.6-0.3c2.5-2.2,4.7-4.7,6.6-7.5
		c1.3-2.3,2.4-4.7,3.1-7.3c0.2-0.7,0.5-1.4,0.7-2.1C21.4,39.7,22.5,37,24.7,35.4z"/>
	<path class="st0" d="M39.3,69.3c0.1,0.1,0.3,0.1,0.5,0.1h0.1c0.3,0,0.6-0.2,0.8-0.5c2.5-4.8,3.4-10.7,2.7-18
		c-0.6-6.5-1.5-12.7-6.7-16.5c-0.4-0.3-1-0.2-1.4,0.2c-0.3,0.4-0.2,1,0.2,1.3c4.5,3.3,5.4,9,5.9,15.1c0.6,7-0.2,12.5-2.5,17
		C38.7,68.5,38.9,69.1,39.3,69.3z"/>
	<path class="st1" d="M38.9,72.1c0.4-0.4,0.4-1,0-1.4c-0.4-0.4-1-0.4-1.4,0c-0.1,0.1-0.2,0.3-0.3,0.4c-4.1,6.3-9.8,11.3-16.6,14.4
		c-0.5,0.3-0.6,0.9-0.4,1.4c0.2,0.3,0.5,0.5,0.8,0.5h0.1c0.1,0,0.2,0,0.4-0.1C28.6,84,34.7,78.7,38.9,72.1z"/>
	<path class="st1" d="M16.6,55.1c0.2,0.1,0.4,0.2,0.5,0.2h0.1c0.3,0,0.6-0.2,0.7-0.4c1-1.4,1.9-3,2.7-4.6c0.3-0.5,0.1-1.1-0.3-1.4
		c-0.5-0.3-1.1-0.1-1.4,0.3c-0.1,0.1-0.1,0.3-0.1,0.4c-0.7,1.4-1.5,2.8-2.4,4.1C16,54.2,16.2,54.8,16.6,55.1L16.6,55.1z"/>
	<path class="st0" d="M38.7,46.1h0.2c0.5-0.1,0.9-0.6,0.8-1.1c-0.1-0.5-0.2-0.9-0.3-1.4c-0.1-0.5-0.7-0.8-1.2-0.7
		c-0.5,0.1-0.8,0.7-0.7,1.2c0.1,0.4,0.2,0.8,0.3,1.2C37.8,45.8,38.2,46.1,38.7,46.1z"/>
	<path class="st0" d="M26.6,43.7L26.6,43.7c-0.6,0.1-1,0.5-1,1c0,0.5,0,0.9,0,1.3c0,0.6,0.4,1,1,1h0.1c0.5,0,0.9-0.5,0.9-1
		c0-0.5,0-0.9,0-1.5C27.6,44.1,27.2,43.7,26.6,43.7z M26.7,46.9L26.7,46.9z"/>
	<path class="st1" d="M1.6,60.5c0.1,0,0.3-0.1,0.4-0.1C7.5,57,11.3,53,13.6,48.2c0.3-0.4,0.3-1.1-0.2-1.4C13,46.5,12.4,46.5,12,47
		c-0.1,0.1-0.1,0.2-0.2,0.4C9.7,51.8,6.1,55.5,1,58.7c-0.4,0.3-0.6,0.9-0.2,1.4C0.9,60.4,1.2,60.5,1.6,60.5L1.6,60.5z"/>
	<path class="st1" d="M19.5,31.9c-3,2.6-4.2,6.2-5.4,9.7c-0.3,0.9-0.6,1.8-0.9,2.7c-0.2,0.5,0.1,1.1,0.6,1.3c0.1,0,0.2,0,0.3,0.1
		c0.4,0,0.8-0.3,0.9-0.6c0.4-0.9,0.7-1.9,1-2.8c1.1-3.4,2.1-6.5,4.8-8.8c2.6-2.1,5.8-3.1,9.1-3.1c2.1,0,4.2,0.4,6.1,1.1
		c5.9,2.3,8.2,9.2,9,14.5c0.1,0.5,0.5,0.8,1,0.8h0.2c0.5-0.1,0.9-0.6,0.8-1.1c-1.3-8.4-4.9-14-10.3-16c-2.2-0.8-4.6-1.3-6.9-1.3
		C26.1,28.2,22.5,29.5,19.5,31.9z"/>
	<path class="st1" d="M47,62.5c0.6-4.4,0.8-8.8,0.5-13.3c0-0.5-0.5-0.9-1-0.9h-0.1c-0.5,0-0.9,0.5-0.9,1c0.2,4.3,0,8.7-0.5,13
		c-1.5,13.3-12.9,20.9-19.6,24.2c-0.5,0.3-0.6,0.9-0.3,1.4c0.2,0.3,0.5,0.4,0.8,0.5h0.1c0.1,0,0.3,0,0.4-0.1
		C33.3,84.7,45.3,76.7,47,62.5z"/>
	<path class="st1" d="M50.1,74.1c-0.5-0.3-1.1-0.1-1.3,0.4c-1.7,3-4,5.7-6.9,7.7c-0.4,0.4-0.5,1-0.1,1.4c0.2,0.2,0.4,0.3,0.7,0.3
		h0.1c0.2,0,0.4-0.1,0.5-0.2c3-2.2,5.6-5,7.4-8.3C50.8,75,50.6,74.4,50.1,74.1z"/>
	<path class="st1" d="M53.7,73.4c-0.5-0.1-1.1,0.2-1.2,0.7c-2.3,7.1-8.6,12.1-16,12.8c-0.6,0-1,0.5-1,1c0,0.6,0.5,1,1,1l0,0l0,0H37
		c8.1-0.9,14.9-6.4,17.4-14.2C54.5,74.1,54.2,73.5,53.7,73.4z"/>
	<path class="st1" d="M1,55.8L1,55.8c0.4,0,0.8-0.3,0.9-0.7c2-7.8,6.1-15,11.8-20.8c5.3-5.2,11.4-8.1,17.1-8.1h0.7l0,0
		c0.6,0,1-0.4,1-1s-0.4-1-1-1C25,24,18.1,27.1,12.3,33C6.4,39,2.1,46.5,0,54.6c-0.1,0.5,0.2,1,0.7,1.2C0.8,55.8,0.9,55.9,1,55.8z"/>
	<path class="st0" d="M41.1,27c-1.9-1.1-3.9-1.8-6-2.3c-0.5-0.1-1,0.3-1.1,0.8c-0.1,0.5,0.2,1,0.8,1.2c1.9,0.4,3.7,1.1,5.4,2.1
		c1.6,1,3.1,2.4,4.1,4c2.2,3.2,3.7,6.9,4.5,10.8c1,5,1.2,10.6,0.4,18c-0.7,7.1-3.1,12.4-6.9,15.8c-0.4,0.4-0.4,1,0,1.4
		c0.2,0.2,0.4,0.3,0.6,0.3h0.1c0.2,0,0.4-0.1,0.6-0.3c4.2-3.8,6.8-9.5,7.6-17.1s0.7-13.3-0.4-18.5c-0.8-4.1-2.4-8-4.8-11.5
		C44.6,29.8,43,28.2,41.1,27z"/>
	<path class="st1" d="M13.6,38.3c-0.2-0.5-0.8-0.8-1.3-0.6c-0.2,0.1-0.4,0.2-0.5,0.4c0,0.1-5.1,9.5-7.7,14.8c-0.2,0.5,0,1.1,0.5,1.3
		c0.1,0.1,0.3,0.1,0.4,0.1h0.1c0.3,0,0.6-0.2,0.8-0.5c2.6-5.2,7.7-14.6,7.7-14.7C13.7,38.9,13.7,38.6,13.6,38.3z"/>
	<path class="st1" d="M61.2,43.2c-2.8-8-7.8-14.4-14.2-18.1c-5-3-10.8-4.6-16.6-4.5c-6.2,0.2-12.2,2.4-17,6.4
		c-0.4,0.3-0.5,0.9-0.2,1.4c0.3,0.4,0.9,0.5,1.4,0.2c4.7-3.8,10.5-5.9,16.6-6c5.2,0.1,10.3,1.5,14.8,4.3c6,3.5,10.7,9.5,13.3,17.1
		c0.1,0.4,0.5,0.6,0.9,0.7h0.1c0.1,0,0.2,0,0.3,0C61.1,44.3,61.4,43.7,61.2,43.2z"/>
	<path class="st1" d="M0.7,45c0.1,0.1,0.3,0.1,0.4,0.1h0.1c0.4,0,0.7-0.2,0.8-0.5c2.8-6,6-10.6,9.9-13.9c0.4-0.4,0.4-1,0.1-1.4
		c-0.4-0.4-1-0.5-1.4-0.1c-4.1,3.5-7.5,8.3-10.4,14.6C0,44.2,0.2,44.8,0.7,45z"/>
	<path class="st1" d="M51.1,72.5c0.4,0,0.7-0.3,0.8-0.6c2.6-6.2,3.9-12.9,3.7-19.6c0-0.5-0.5-0.9-1-0.9l0,0c-0.3,0-0.5,0.1-0.7,0.3
		c-0.2,0.2-0.3,0.4-0.3,0.7c0.2,6.4-1,12.9-3.6,18.8c-0.2,0.5,0,1.1,0.5,1.3C50.7,72.4,50.9,72.5,51.1,72.5L51.1,72.5z"/>
	<path class="st1" d="M47.7,29.3c-0.4-0.4-1-0.4-1.4-0.1c-0.4,0.4-0.5,1-0.1,1.4c4.8,5.7,6.3,12.2,7.1,18.3c0.1,0.5,0.5,0.8,1,0.8
		h0.1c0.5-0.1,0.9-0.6,0.8-1.1C54.4,42.2,52.9,35.4,47.7,29.3z"/>
	<path class="st1" d="M55.6,38.8c-0.6,0-1,0.5-1,1c0,0.1,0,0.2,0,0.3c3.7,10.8,3.6,19.5-0.5,30.3c-0.2,0.5,0.1,1.1,0.6,1.3
		c0.1,0,0.2,0,0.3,0.1h0.1c0.4,0,0.7-0.3,0.8-0.6c4.2-11.1,4.3-20.5,0.5-31.6C56.4,39.1,56,38.8,55.6,38.8z"/>
	<path class="st1" d="M3.2,33.2L3.2,33.2c0.3,0,0.6-0.1,0.7-0.3c7.4-8.4,18.4-13.7,28.7-13.7c5.5-0.1,10.9,1.6,15.4,4.7
		c0.4,0.3,1,0.2,1.4-0.2c0.3-0.4,0.2-1-0.2-1.4c-4.8-3.3-10.6-5.1-16.5-5c-10.8,0-22.4,5.5-30.2,14.3C2.1,32,2.2,32.7,2.6,33
		C2.8,33.1,3,33.2,3.2,33.2L3.2,33.2z"/>
	<path class="st1" d="M52.4,24.6c-0.4-0.3-1-0.3-1.4,0.1c-0.3,0.4-0.3,1,0.1,1.4c3.1,2.6,5.8,5.8,7.8,9.3c0.2,0.3,0.5,0.5,0.9,0.5
		h0.1c0.5-0.1,0.9-0.5,0.9-1.1c0-0.1,0-0.2-0.1-0.4C58.6,30.8,55.8,27.4,52.4,24.6z"/>
	<path class="st1" d="M31.9,13.6c-4,0-7.9,0.6-11.7,1.6c-0.5,0.2-0.8,0.7-0.7,1.2c0.2,0.5,0.7,0.8,1.2,0.7c3.7-1,7.4-1.5,11.2-1.5
		c6.7-0.1,13.3,1.7,19,5.4c2.1,1.3,4,3,5.5,4.9c0.2,0.2,0.5,0.4,0.8,0.4h0.1c0.5-0.1,0.9-0.6,0.9-1.1c0-0.2-0.1-0.3-0.2-0.5
		c-1.7-2.1-3.7-3.9-6-5.4C46,15.4,39,13.4,31.9,13.6z"/>
	<path class="st1" d="M6.5,24.3L6.5,24.3c0.3,0,0.5-0.1,0.7-0.3c3-2.6,6.5-4.6,10.3-5.9c0.5-0.2,0.7-0.7,0.5-1.2
		c-0.2-0.5-0.8-0.7-1.3-0.6c-4,1.4-7.8,3.5-11,6.3c-0.4,0.4-0.4,1,0,1.4C5.9,24.2,6.2,24.3,6.5,24.3L6.5,24.3z"/>
	<path class="st1" d="M10.5,17.5L10.5,17.5c0.2,0,0.3,0,0.4-0.1c6.6-3.6,14-5.5,21.5-5.5c2.9,0,5.9,0.3,8.7,1c0.5,0.2,1.1,0,1.3-0.5
		s0-1.1-0.5-1.3c-0.1-0.1-0.3-0.1-0.4-0.1c-3-0.7-6.1-1.1-9.2-1.1c-7.8,0.1-15.5,2.1-22.4,5.8c-0.5,0.3-0.6,0.9-0.3,1.4
		C9.9,17.3,10.1,17.4,10.5,17.5L10.5,17.5z"/>
	<path class="st1" d="M44.7,11.9c-0.5,0.1-0.9,0.5-0.9,1.1c0,0.3,0.3,0.7,0.6,0.8c3.5,1.2,6.9,2.8,10,4.9c0.2,0.1,0.4,0.2,0.6,0.2
		H55c0.5-0.1,0.9-0.6,0.9-1.1c0-0.3-0.2-0.5-0.4-0.7c-3.2-2.2-6.8-3.9-10.5-5.1C44.9,11.9,44.8,11.9,44.7,11.9z"/>
	<path class="st1" d="M24.4,7.4c-0.6,0-1,0.4-1.1,0.9c0,0.6,0.4,1,0.9,1.1c0.1,0,0.3,0,0.4-0.1c2.2-0.3,4.5-0.5,6.7-0.5
		c6.8,0,13.6,1.4,19.8,4.2c0.1,0.1,0.3,0.1,0.4,0.1h0.1c0.5-0.1,1-0.5,0.9-1.1c0-0.3-0.2-0.6-0.5-0.8c-6.5-2.8-13.5-4.3-20.6-4.3
		C29,6.9,26.7,7,24.4,7.4z"/>
	<path class="st1" d="M14.6,11.7L14.6,11.7h0.3c2.1-0.7,4.3-1.2,6.5-1.7c0.5-0.1,0.9-0.6,0.8-1.2c-0.1-0.5-0.5-0.8-1-0.8H21
		c-2.3,0.5-4.5,1.1-6.7,1.8c-0.5,0.2-0.7,0.8-0.5,1.3C14,11.4,14.3,11.7,14.6,11.7L14.6,11.7z"/>
	<path class="st1" d="M41.1,5.3c-0.1,0.5,0.2,1,0.8,1.2c2,0.4,4,0.9,5.9,1.6c0.1,0,0.2,0,0.3,0h0.1C48.8,8,49.1,7.4,49,6.9
		c-0.1-0.3-0.3-0.6-0.6-0.8c-2-0.7-4.1-1.2-6.2-1.6C41.7,4.4,41.2,4.8,41.1,5.3C41.1,5.3,41.1,5.3,41.1,5.3z"/>
	<path class="st1" d="M19.5,6.7c0.1,0,0.2,0,0.3,0c3.5-0.9,7.1-1.3,10.8-1.3c2.6,0,5.2,0.2,7.7,0.5h0.2c0.5,0,0.8-0.4,0.9-0.8
		c0.1-0.5-0.3-1-0.8-1.1c-2.7-0.4-5.3-0.5-8-0.5c-3.8,0-7.6,0.4-11.2,1.3c-0.5,0.2-0.8,0.8-0.6,1.3C18.9,6.4,19.2,6.6,19.5,6.7
		L19.5,6.7z"/>
	<path class="st1" d="M33.1,2c3,0,6,0.5,8.9,1.5c0.1,0,0.2,0,0.3,0h0.1c0.5-0.1,0.9-0.6,0.8-1.2c-0.1-0.3-0.3-0.6-0.6-0.8
		c-3-1-6.2-1.6-9.5-1.6c-0.6,0-1,0.4-1,1S32.6,2,33.1,2L33.1,2z"/>
	<path class="st1" d="M26.8,2.2L26.8,2.2c1-0.1,1.9-0.2,3-0.2c0.6,0,1-0.5,1-1s-0.5-1-1-1l0,0c-1.1,0-2.1,0.1-3,0.2
		c-0.6,0-1,0.5-0.9,1.1S26.3,2.3,26.8,2.2L26.8,2.2z"/>
	<path class="st1" d="M41.3,81.1c0.3-0.4,0.3-1-0.1-1.4c-0.4-0.3-1-0.3-1.4,0.1c0,0.1-5,5.5-9.3,7.2c-0.5,0.3-0.7,0.9-0.4,1.4
		c0.2,0.3,0.5,0.5,0.8,0.5l0,0c0.1,0,0.2,0,0.3-0.1C36,86.9,41.1,81.4,41.3,81.1z"/>
</g>
</svg>
