<svg xmlns="http://www.w3.org/2000/svg" viewBox="0 0 61.25 88.92"><defs><style>.cls-1{fill:#17a6ff;}</style></defs><title>FingerPrint</title><g id="Layer_2" data-name="Layer 2"><g id="Artboard_1" data-name="Artboard 1"><g id="Assets"><g id="Section_5_-_Our_Methodology" data-name="Section 5 - Our Methodology"><g id="Considering_Biometric_Time_and_Attendance_Systems" data-name="Considering Biometric Time and Attendance Systems"><g id="House"><path class="cls-1" d="M25.6,62.92c4.64-6.87,6.33-14.35,4.89-21.64a1,1,0,0,0-1.15-.77,1,1,0,0,0-.77,1.15c2.91,14.77-8.3,28.13-20.88,33.7a1,1,0,0,0,.4,1.87h.07a1,1,0,0,0,.33-.08A41.33,41.33,0,0,0,25.6,62.92Z"/><path class="cls-1" d="M32.94,56.22a1,1,0,0,0-1.9-.47C28,68,16.55,75.23,10,78.43a1,1,0,0,0,.43,1.86h.07a1,1,0,0,0,.36-.1C17.71,76.83,29.74,69.26,32.94,56.22Z"/><path class="cls-1" d="M32,53.11a1,1,0,0,0,.64.39h.21a1,1,0,0,0,.9-.83,24.27,24.27,0,0,0,.07-7.79,1,1,0,1,0-1.93.34,22.4,22.4,0,0,1-.08,7.16A1,1,0,0,0,32,53.11Z"/><path class="cls-1" d="M31.48,68.73a1,1,0,0,0-.25-1.36,1,1,0,0,0-1.36.25C26.13,73,20.5,77.56,13.14,81.11a1,1,0,0,0-.46,1.31,1,1,0,0,0,.88.55h.07a1,1,0,0,0,.35-.09C21.66,79.18,27.54,74.42,31.48,68.73Z"/><path class="cls-1" d="M21.24,55.33A29.08,29.08,0,0,0,24.14,47c.13-.73.21-1.48.28-2.21.18-1.89.36-3.67,1.51-5a4.92,4.92,0,0,1,3.68-1.57,4.73,4.73,0,0,1,2.41.63c2.46,1.46,2.71,4.77,2.92,7.44.59,7.86-.43,13.68-3.23,18.31A1,1,0,0,0,32,66a1,1,0,0,0,1.34-.33c3-5,4.13-11.18,3.51-19.47-.22-3-.53-7-3.87-9a6.62,6.62,0,0,0-3.38-.89,6.93,6.93,0,0,0-5.18,2.23c-1.56,1.79-1.78,4-2,6.08-.07.72-.14,1.39-.26,2a27.13,27.13,0,0,1-2.7,7.76A33.82,33.82,0,0,1,8.37,66.58a36.41,36.41,0,0,1-4.31,2.49,1,1,0,0,0,.43,1.86h.07a1,1,0,0,0,.36-.1,38.35,38.35,0,0,0,4.55-2.63A35.76,35.76,0,0,0,21.24,55.33Z"/><path class="cls-1" d="M15.9,55.74a1,1,0,0,0-1.37.19A36,36,0,0,1,4,65.21a1,1,0,0,0-.35,1.34,1,1,0,0,0,.85.49h.07A1,1,0,0,0,5,66.91a38,38,0,0,0,11.08-9.79A1,1,0,0,0,15.9,55.74Z"/><path class="cls-1" d="M27.45,78.72a1,1,0,0,0-.21-.72,1,1,0,0,0-1.38-.15,50,50,0,0,1-9.2,5.76,1,1,0,0,0,.43,1.86h.07a1,1,0,0,0,.36-.1,51.92,51.92,0,0,0,9.56-6A1,1,0,0,0,27.45,78.72Z"/><path class="cls-1" d="M28.69,76.72a1,1,0,0,0,.71.3h.07a1,1,0,0,0,.6-.27C37.69,69.52,41.3,58.89,40,47.58a1,1,0,0,0-1-.87h-.12A1,1,0,0,0,38,47.81c1.26,10.69-2.13,20.72-9.3,27.52A1,1,0,0,0,28.69,76.72Z"/><path class="cls-1" d="M27.49,49a1,1,0,0,0-1.92-.38c-1.89,9.49-9.13,18.17-19.84,23.81a1,1,0,0,0,.46,1.85h.07a1,1,0,0,0,.38-.11C17.88,68.28,25.48,59.11,27.49,49Z"/><path class="cls-1" d="M7.64,60.66a1,1,0,0,0-.18-.73,1,1,0,0,0-1.37-.21,35.6,35.6,0,0,1-4.24,2.67,1,1,0,0,0,.46,1.84h.07a1,1,0,0,0,.39-.11A37.57,37.57,0,0,0,7.25,61.3,1,1,0,0,0,7.64,60.66Z"/><path class="cls-1" d="M24.68,35.43A8.2,8.2,0,0,1,29.49,34a9.9,9.9,0,0,1,3.21.54,1,1,0,0,0,1.24-.61,1,1,0,0,0-.61-1.24A12,12,0,0,0,29.46,32a10,10,0,0,0-5.93,1.85c-2.59,1.89-3.82,4.88-4.77,7.53-.25.7-.49,1.41-.73,2.13a32.24,32.24,0,0,1-2.91,6.87,33,33,0,0,1-6.2,7.07,1,1,0,0,0,.65,1.71h.07a1,1,0,0,0,.58-.25,34.92,34.92,0,0,0,6.56-7.5,34.29,34.29,0,0,0,3.1-7.28c.23-.7.47-1.4.72-2.09C21.44,39.66,22.53,37,24.68,35.43Z"/><path class="cls-1" d="M39.35,69.33a1,1,0,0,0,.45.11h.07a1,1,0,0,0,.8-.52c2.48-4.77,3.37-10.68,2.71-18-.58-6.53-1.54-12.7-6.7-16.47a1,1,0,0,0-1.37.21A1,1,0,0,0,35.53,36c4.5,3.29,5.36,9,5.9,15.07.62,7-.19,12.53-2.5,17A1,1,0,0,0,39.35,69.33Z"/><path class="cls-1" d="M38.94,72.06a1,1,0,1,0-1.66-1A39.34,39.34,0,0,1,20.65,85.49a1,1,0,0,0,.42,1.86h.07a1,1,0,0,0,.35-.09A41.29,41.29,0,0,0,38.94,72.06Z"/><path class="cls-1" d="M16.58,55.12a1,1,0,0,0,.55.17h.07a1,1,0,0,0,.74-.42,31.11,31.11,0,0,0,2.67-4.57,1,1,0,1,0-1.85-.64,30.08,30.08,0,0,1-2.43,4.1,1,1,0,0,0,.26,1.36Z"/><path class="cls-1" d="M38.7,46.14h.16A1,1,0,0,0,39.67,45c-.07-.46-.17-.92-.3-1.42a1,1,0,0,0-1.19-.7,1,1,0,0,0-.7,1.19c.12.44.2.85.26,1.24A1,1,0,0,0,38.7,46.14Z"/><path class="cls-1" d="M26.65,43.71h-.06a1,1,0,0,0-.9,1.05c0,.45.05.87,0,1.27a1,1,0,0,0,1,1h.09a1,1,0,0,0,.91-1c0-.46,0-.94-.05-1.45A1,1,0,0,0,26.65,43.71Zm.06,3.18h0Z"/><path class="cls-1" d="M1.58,60.54A1,1,0,0,0,2,60.4C7.48,57,11.27,53,13.62,48.2a1,1,0,1,0-1.76-.86C9.68,51.8,6.13,55.53,1,58.74a1,1,0,0,0,.52,1.81Z"/><path class="cls-1" d="M19.55,31.86c-3,2.61-4.21,6.2-5.35,9.69-.29.9-.6,1.83-.93,2.72a1,1,0,0,0,.92,1.32,1,1,0,0,0,.92-.64c.35-.93.66-1.89,1-2.82,1.1-3.37,2.14-6.54,4.76-8.8A14.21,14.21,0,0,1,30,30.27a17.12,17.12,0,0,1,6.12,1.13c5.93,2.3,8.18,9.17,9,14.53a1,1,0,0,0,1,.83h.15a1,1,0,0,0,.81-1.12c-1.33-8.42-4.87-14-10.25-16.05A19.42,19.42,0,0,0,29.9,28.3,15.72,15.72,0,0,0,19.55,31.86Z"/><path class="cls-1" d="M47,62.46a72.08,72.08,0,0,0,.53-13.28,1,1,0,0,0-1-.91h-.07a1,1,0,0,0-.91,1A70.22,70.22,0,0,1,45,62.23c-1.53,13.3-12.93,20.89-19.59,24.24a1,1,0,0,0,.44,1.85h.07a1,1,0,0,0,.37-.1C33.31,84.7,45.32,76.67,47,62.46Z"/><path class="cls-1" d="M50.14,74.14a1,1,0,0,0-1.33.36,23.49,23.49,0,0,1-6.89,7.71,1,1,0,0,0,.6,1.75h.07a1,1,0,0,0,.53-.2,25.49,25.49,0,0,0,7.38-8.28A1,1,0,0,0,50.14,74.14Z"/><path class="cls-1" d="M53.73,73.38a1,1,0,0,0-1.21.67,18.43,18.43,0,0,1-16,12.75,1,1,0,0,0,.07,2h0l.39,0A20.53,20.53,0,0,0,54.39,74.6,1,1,0,0,0,53.73,73.38Z"/><path class="cls-1" d="M1,55.85H1a1,1,0,0,0,.88-.72A46.56,46.56,0,0,1,13.63,34.36C18.9,29.12,25,26.23,30.75,26.23l.74,0h0a1,1,0,0,0,0-2C25,24,18.13,27.12,12.25,33A48.54,48.54,0,0,0,0,54.62a1,1,0,0,0,.69,1.2A1,1,0,0,0,1,55.85Z"/><path class="cls-1" d="M41.11,27a21.16,21.16,0,0,0-6-2.27A1,1,0,0,0,34,25.5a1,1,0,0,0,.75,1.16,19.19,19.19,0,0,1,5.43,2.06,12.91,12.91,0,0,1,4.1,4A28.29,28.29,0,0,1,48.74,43.5c1,5,1.15,10.56.38,18-.73,7.05-3.06,12.37-6.91,15.81A1,1,0,0,0,42.86,79h.07a1,1,0,0,0,.58-.25c4.23-3.77,6.77-9.51,7.56-17.07s.66-13.32-.41-18.55a30.22,30.22,0,0,0-4.81-11.49A14.89,14.89,0,0,0,41.11,27Z"/><path class="cls-1" d="M13.65,38.35a1,1,0,0,0-1.8-.18c0,.09-5.09,9.54-7.72,14.76A1,1,0,0,0,5,54.36h.07a1,1,0,0,0,.8-.54c2.63-5.21,7.65-14.64,7.7-14.72A1,1,0,0,0,13.65,38.35Z"/><path class="cls-1" d="M61.19,43.2c-2.81-8-7.85-14.43-14.2-18.13a31.4,31.4,0,0,0-16.6-4.47,28.3,28.3,0,0,0-17,6.37,1,1,0,0,0-.16,1.37,1,1,0,0,0,1.37.16,26.7,26.7,0,0,1,16.6-6A29.17,29.17,0,0,1,46,26.76C52,30.23,56.69,36.3,59.35,43.85a1,1,0,0,0,.92.65h.07a1,1,0,0,0,.26-.05A1,1,0,0,0,61.19,43.2Z"/><path class="cls-1" d="M.68,45a1,1,0,0,0,.41.09h.07A1,1,0,0,0,2,44.56c2.77-6,6-10.58,9.92-13.87A1,1,0,0,0,12,29.31a1,1,0,0,0-1.38-.12C6.51,32.68,3.09,37.44.2,43.75A1,1,0,0,0,.68,45Z"/><path class="cls-1" d="M51.06,72.46a1,1,0,0,0,.84-.6A47,47,0,0,0,55.6,52.24a1,1,0,0,0-1-.94h0a1,1,0,0,0-.68.31,1,1,0,0,0-.27.71,45.08,45.08,0,0,1-3.56,18.8,1,1,0,0,0,.53,1.28,1,1,0,0,0,.37.07Z"/><path class="cls-1" d="M47.73,29.29a1,1,0,0,0-1.38-.11,1,1,0,0,0-.12,1.38c4.81,5.69,6.27,12.17,7.14,18.34a1,1,0,0,0,1,.84h.14a1,1,0,0,0,.83-1.1C54.4,42.16,52.86,35.36,47.73,29.29Z"/><path class="cls-1" d="M55.62,38.78a1,1,0,0,0-.93,1.3c3.7,10.75,3.56,19.51-.47,30.26a1,1,0,0,0,.91,1.32h.07a1,1,0,0,0,.85-.63c4.15-11.07,4.29-20.51.48-31.58A1,1,0,0,0,55.62,38.78Z"/><path class="cls-1" d="M3.17,33.19h.07a1,1,0,0,0,.66-.33c7.43-8.44,18.42-13.69,28.69-13.69A26.33,26.33,0,0,1,48,23.87a1,1,0,0,0,1.36-.24,1,1,0,0,0-.24-1.36,28.21,28.21,0,0,0-16.45-5c-10.84,0-22.4,5.5-30.19,14.34a1,1,0,0,0,.73,1.62Z"/><path class="cls-1" d="M52.43,24.62a1,1,0,0,0-1.38.11,1,1,0,0,0,.11,1.38A34.48,34.48,0,0,1,59,35.46a1,1,0,0,0,.86.51h.07a1,1,0,0,0,.79-1.45A36.45,36.45,0,0,0,52.43,24.62Z"/><path class="cls-1" d="M31.89,13.57a43.92,43.92,0,0,0-11.74,1.62,1,1,0,0,0-.68,1.2,1,1,0,0,0,1.2.68A42,42,0,0,1,31.9,15.52a34.06,34.06,0,0,1,19,5.35,22.4,22.4,0,0,1,5.54,4.93,1,1,0,0,0,.78.39h.07A1,1,0,0,0,58,24.62a24.32,24.32,0,0,0-6-5.37A36,36,0,0,0,31.89,13.57Z"/><path class="cls-1" d="M6.49,24.3h.07A1,1,0,0,0,7.15,24a31.12,31.12,0,0,1,10.31-5.94A1,1,0,0,0,18,16.85a1,1,0,0,0-1.26-.57,33,33,0,0,0-11,6.33,1,1,0,0,0,.66,1.7Z"/><path class="cls-1" d="M10.47,17.46h.07a1,1,0,0,0,.38-.11A46.44,46.44,0,0,1,32.38,11.8a35.51,35.51,0,0,1,8.71,1,1,1,0,1,0,.48-1.9,37.42,37.42,0,0,0-9.18-1.11A48.41,48.41,0,0,0,10,15.62a1,1,0,0,0,.46,1.84Z"/><path class="cls-1" d="M44.66,11.9a1,1,0,0,0-.32,1.9,40.38,40.38,0,0,1,10,4.87,1,1,0,0,0,.56.17h.07a1,1,0,0,0,.49-1.78A42.34,42.34,0,0,0,45,12,1,1,0,0,0,44.66,11.9Z"/><path class="cls-1" d="M24.37,7.38a1,1,0,1,0,.28,1.94,47.81,47.81,0,0,1,6.72-.47A49.72,49.72,0,0,1,51.19,13a1,1,0,0,0,.39.08h.07A1,1,0,0,0,52,11.19a51.68,51.68,0,0,0-20.6-4.31A49.83,49.83,0,0,0,24.37,7.38Z"/><path class="cls-1" d="M14.64,11.72h.07l.23,0c2.1-.67,4.28-1.2,6.52-1.74A1,1,0,0,0,21.23,8L21,8c-2.28.54-4.5,1.09-6.66,1.78a1,1,0,0,0,.3,1.91Z"/><path class="cls-1" d="M41.12,5.32a1,1,0,0,0,.77,1.15,51.76,51.76,0,0,1,5.94,1.57,1,1,0,0,0,.31,0h.07a1,1,0,0,0,.24-1.91,53.65,53.65,0,0,0-6.17-1.63A1,1,0,0,0,41.12,5.32Z"/><path class="cls-1" d="M19.54,6.65a1,1,0,0,0,.25,0A42.83,42.83,0,0,1,30.56,5.35a59.24,59.24,0,0,1,7.72.52h.2a1,1,0,0,0,.9-.85,1,1,0,0,0-.84-1.1,61.23,61.23,0,0,0-8-.54A44.8,44.8,0,0,0,19.3,4.73a1,1,0,0,0,.25,1.93Z"/><path class="cls-1" d="M33.12,2A27.1,27.1,0,0,1,42,3.49a1,1,0,0,0,.29,0h.07a1,1,0,0,0,.22-1.91A29.16,29.16,0,0,0,33.13,0a1,1,0,0,0,0,2Z"/><path class="cls-1" d="M26.75,2.22h.09c.88-.09,1.81-.15,2.95-.2a1,1,0,0,0-.07-2h0c-1.13.05-2.12.12-3,.21a1,1,0,0,0,.11,2Z"/><path class="cls-1" d="M41.3,81.14a1,1,0,0,0-.07-1.38,1,1,0,0,0-1.38.07c0,.05-5,5.49-9.25,7.22A1,1,0,0,0,31,88.92H31a1,1,0,0,0,.3-.07C36,86.95,41.08,81.37,41.3,81.14Z"/></g></g></g></g></g></g></svg>