<!-- Generator: Adobe Illustrator 21.0.0, SVG Export Plug-In  -->
<svg version="1.1"
	 xmlns="http://www.w3.org/2000/svg" xmlns:xlink="http://www.w3.org/1999/xlink" xmlns:a="http://ns.adobe.com/AdobeSVGViewerExtensions/3.0/"
	 x="0px" y="0px" width="42.3px" height="42.3px" viewBox="0 0 42.3 42.3" style="enable-background:new 0 0 42.3 42.3;"
	 xml:space="preserve">
<style type="text/css">
	.st0{fill:#3D5AFE;}
	.st1{fill:#FFFFFF;}
</style>
<defs>
</defs>
<g>
	<g>
		<path class="st0" d="M0,31.7c0,5.8,4.7,10.6,10.6,10.6h21.1c5.8,0,10.6-4.7,10.6-10.6V10.6C42.3,4.7,37.5,0,31.7,0H10.6
			C4.7,0,0,4.7,0,10.6V31.7z"/>
		<path class="st1" d="M38.7,21.1c-1.9,0-3.5-1.6-3.5-3.5v0l0,0v-7c0-1.9-1.6-3.5-3.5-3.5h-3.5v17.6L14.1,7v0h-3.5
			C8.6,7,7,8.6,7,10.6v7c0,1.9-1.6,3.5-3.5,3.5l0,0v0l0,0c1.9,0,3.5,1.6,3.5,3.5v7c0,1.9,1.6,3.5,3.5,3.5h3.5V17.6l14.1,17.6h3.5
			c1.9,0,3.5-1.6,3.5-3.5v-7l0,0v0C35.2,22.7,36.8,21.1,38.7,21.1L38.7,21.1L38.7,21.1L38.7,21.1z"/>
	</g>
</g>
</svg>
